<svg id="email_border" xmlns="http://www.w3.org/2000/svg" xmlns:xlink="http://www.w3.org/1999/xlink" viewBox="0 0 388.26 388.03"><defs><linearGradient id="linear-gradient" x1="567.42" y1="-170.37" x2="664.33" y2="-532.42" gradientTransform="translate(-1.47 198.12) rotate(45)" gradientUnits="userSpaceOnUse"><stop offset="0" stop-color="#ff7a3b" stop-opacity="0.8"/><stop offset="1" stop-color="#f91e47" stop-opacity="0.8"/></linearGradient></defs><g id="email_border-2" data-name="email_border"><path d="M816.2,253.05h0a189.24,189.24,0,0,0-180.9-49.5h0a185,185,0,0,0-132.7,132.7h0c-16.9,65.1,1.2,133.9,48.3,180.9h0c47,47,115.8,65.1,180.9,48.3h0a184.71,184.71,0,0,0,132.7-132.6h0C881.3,368.85,863.2,301.35,816.2,253.05Z" transform="translate(-489.39 -190.58)" style="stroke:#2e2e4e;stroke-miterlimit:10;stroke-width:14px;fill:url(#linear-gradient)"/><path d="M683.52,216.13a168,168,0,1,0,168,168A168,168,0,0,0,683.52,216.13Zm97.86,97.72-97.86,79.32-97.87-79.32Zm.14,140h-196V334.78l98,79.42,98-79.41Z" transform="translate(-489.39 -190.58)" style="fill:#2e2e4e"/></g></svg>