<svg id="harmony_full" xmlns="http://www.w3.org/2000/svg" xmlns:xlink="http://www.w3.org/1999/xlink" viewBox="0 0 388.26 388.03"><defs><linearGradient id="linear-gradient" x1="567.42" y1="-170.37" x2="664.33" y2="-532.42" gradientTransform="translate(-1.47 198.12) rotate(45)" gradientUnits="userSpaceOnUse"><stop offset="0" stop-color="#ff7a3b" stop-opacity="0.8"/><stop offset="1" stop-color="#f91e47" stop-opacity="0.8"/></linearGradient></defs><g id="harmony_full-2" data-name="harmony_full"><path d="M816.2,253.05h0a189.24,189.24,0,0,0-180.9-49.5h0a185,185,0,0,0-132.7,132.7h0c-16.9,65.1,1.2,133.9,48.3,180.9h0c47,47,115.8,65.1,180.9,48.3h0a184.71,184.71,0,0,0,132.7-132.6h0C881.3,368.85,863.2,301.35,816.2,253.05Z" transform="translate(-489.39 -190.58)" style="stroke:#2e2e4e;stroke-miterlimit:10;stroke-width:14px;fill:url(#linear-gradient)"/><path d="M588,397.72h-1.12V318.56c0-2.25,0-4.5,1.12-5.62A29.62,29.62,0,0,1,623,290.33c13.59,3.38,22.6,14.73,22.6,28.33v57.67c-3.37,0-6.75,1.13-11.35,2.26s-7.88,2.25-12.47,3.37a86,86,0,0,0-18,6.66A69,69,0,0,0,588,397.72Zm58.71-1.12a203.22,203.22,0,0,0-33.95,10.22,53.66,53.66,0,0,0-15.66,10.56c-4.11,4.09-6.94,8.62-8.07,13.16-1.13,1.13-1.13,2.25-1.13,4.51v13.6a29.26,29.26,0,0,0,29.46,29.45c15.85,0,29.45-13.61,29.45-29.45h-.1ZM747.49,289c-15.85,0-29.45,13.6-29.45,29.45v53.27a203.22,203.22,0,0,0,34-10.22c15.76-6.84,24.85-18.09,24.85-29.45v-13.6A29.25,29.25,0,0,0,747.49,289Zm-.1,95.11a97.13,97.13,0,0,1-26,6.75h-2.26v57.68a28.07,28.07,0,0,0,28.33,28.33c15.84,0,29.35-12.39,29.35-28.23V368.27A46.39,46.39,0,0,1,761,378.49C756.49,380.74,751.89,383,747.39,384.12Zm119.23,1.38c0,101.12-82,183.1-183.1,183.1s-183.1-82-183.1-183.1,82-183.1,183.1-183.1S866.62,284.38,866.62,385.5Zm-68.2-66.84a51.12,51.12,0,0,0-50.93-48.77,48.9,48.9,0,0,0-48.68,41.83v61h-31.7V317.34c0-27.19-22.61-48.68-49.8-48.68-23.74,0-44.09,18.11-47.55,40.71,0,2.25-1.13,4.5-1.13,7.88V447.33c0,27.2,22.6,48.68,49.8,48.68a48.18,48.18,0,0,0,48.68-48.48V393.22h32.82v55.43c0,27.19,22.61,48.67,49.8,48.67,24.86,0,46.43-19.22,48.69-44.08Z" transform="translate(-489.39 -190.58)" style="fill:#2e2e4e"/></g></svg>