<svg id="harmony_border" xmlns="http://www.w3.org/2000/svg" xmlns:xlink="http://www.w3.org/1999/xlink" viewBox="0 0 388.26 388.03"><defs><linearGradient id="linear-gradient" x1="567.42" y1="-170.37" x2="664.33" y2="-532.42" gradientTransform="translate(-1.47 198.12) rotate(45)" gradientUnits="userSpaceOnUse"><stop offset="0" stop-color="#ff7a3b" stop-opacity="0.8"/><stop offset="1" stop-color="#f91e47" stop-opacity="0.8"/></linearGradient></defs><g id="harmony_border-2" data-name="harmony_border"><path d="M816.2,253.05h0a189.24,189.24,0,0,0-180.9-49.5h0a185,185,0,0,0-132.7,132.7h0c-16.9,65.1,1.2,133.9,48.3,180.9h0c47,47,115.8,65.1,180.9,48.3h0a184.71,184.71,0,0,0,132.7-132.6h0C881.3,368.85,863.2,301.35,816.2,253.05Z" transform="translate(-489.39 -190.58)" style="stroke:#2e2e4e;stroke-miterlimit:10;stroke-width:14px;fill:url(#linear-gradient)"/><path d="M594.93,396.71h-1V324.08c0-2.06,0-4.13,1-5.16a27.18,27.18,0,0,1,32.19-20.74c12.47,3.1,20.73,13.51,20.73,26v52.92c-3.09,0-6.19,1-10.41,2.07s-7.23,2.06-11.44,3.09a79.48,79.48,0,0,0-16.53,6.11A63.77,63.77,0,0,0,594.93,396.71Zm53.87-1a186.39,186.39,0,0,0-31.15,9.38,49.3,49.3,0,0,0-14.37,9.69,26.57,26.57,0,0,0-7.4,12.08c-1,1-1,2.06-1,4.13v12.48a26.85,26.85,0,0,0,27,27c14.54,0,27-12.48,27-27h-.09ZM741.31,297c-14.54,0-27,12.48-27,27v48.88a186.39,186.39,0,0,0,31.15-9.38c14.46-6.28,22.8-16.6,22.8-27V324A26.83,26.83,0,0,0,741.31,297Zm-.09,87.26a88.94,88.94,0,0,1-23.83,6.2h-2.07v52.92a25.76,25.76,0,0,0,26,26c14.54,0,26.93-11.36,26.93-25.9V369.69a42.63,42.63,0,0,1-14.54,9.38C749.57,381.13,745.35,383.2,741.22,384.23Zm109.4,1.27a168,168,0,1,1-168-168A168,168,0,0,1,850.62,385.5ZM788,324.17a46.9,46.9,0,0,0-46.73-44.75,44.87,44.87,0,0,0-44.66,38.38v56H667.56V323c0-24.95-20.74-44.66-45.69-44.66-21.78,0-40.45,16.61-43.63,37.35,0,2.06-1,4.13-1,7.23V442.23c0,25,20.74,44.67,45.7,44.67a44.21,44.21,0,0,0,44.66-44.49V392.58h30.12v50.86c0,24.95,20.74,44.66,45.69,44.66,22.81,0,42.6-17.64,44.67-40.45Z" transform="translate(-489.39 -190.58)" style="fill:#2e2e4e"/></g></svg>