<svg id="instagram_border" xmlns="http://www.w3.org/2000/svg" xmlns:xlink="http://www.w3.org/1999/xlink" viewBox="0 0 388.26 388.03"><defs><linearGradient id="linear-gradient" x1="634.86" y1="566.44" x2="731.71" y2="204.63" gradientUnits="userSpaceOnUse"><stop offset="0" stop-color="#ff7a3b" stop-opacity="0.8"/><stop offset="1" stop-color="#f91e47" stop-opacity="0.8"/></linearGradient></defs><g id="instagram_border-2" data-name="instagram_border"><path d="M816.2,253.05h0a189.24,189.24,0,0,0-180.9-49.5h0a185,185,0,0,0-132.7,132.7h0c-16.9,65.1,1.2,133.9,48.3,180.9h0c47,47,115.8,65.1,180.9,48.3h0a184.71,184.71,0,0,0,132.7-132.6h0C881.3,368.85,863.2,301.35,816.2,253.05Z" transform="translate(-489.39 -190.58)" style="stroke:#2e2e4e;stroke-miterlimit:10;stroke-width:14px;fill:url(#linear-gradient)"/><path d="M723.93,304.48c-10.34-.48-13.44-.56-39.61-.56s-29.26.1-39.59.56c-26.59,1.22-39,13.8-40.18,40.18-.46,10.33-.58,13.42-.58,39.59s.12,29.26.58,39.61c1.22,26.3,13.54,39,40.18,40.18,10.32.46,13.42.57,39.59.57s29.27-.1,39.61-.57c26.58-1.21,38.94-13.84,40.18-40.18.46-10.34.56-13.44.56-39.61s-.1-29.26-.56-39.59C762.87,318.3,750.48,305.7,723.93,304.48Zm-39.61,130.1a50.33,50.33,0,1,1,50.33-50.33A50.33,50.33,0,0,1,684.32,434.58Zm52.32-90.87A11.76,11.76,0,1,1,748.4,332,11.76,11.76,0,0,1,736.64,343.71ZM717,384.25a32.66,32.66,0,1,1-32.66-32.66A32.66,32.66,0,0,1,717,384.25Zm-32.66-168a168,168,0,1,0,168,168A168,168,0,0,0,684.32,216.25Zm97.41,208.4c-1.61,35.63-21.45,55.37-57,57-10.46.48-13.81.59-40.42.59s-30-.11-40.4-.59c-35.62-1.64-55.37-21.4-57-57-.48-10.44-.59-13.79-.59-40.4s.11-29.95.59-40.4c1.64-35.62,21.4-55.37,57-57,10.45-.49,13.79-.6,40.4-.6s30,.11,40.42.6c35.63,1.64,55.4,21.45,57,57,.48,10.45.59,13.79.59,40.4S782.21,414.21,781.73,424.65Z" transform="translate(-489.39 -190.58)" style="fill:#2e2e4e"/></g></svg>