<svg id="instagram_full" xmlns="http://www.w3.org/2000/svg" xmlns:xlink="http://www.w3.org/1999/xlink" viewBox="0 0 388.26 388.03"><defs><linearGradient id="linear-gradient" x1="567.42" y1="-170.37" x2="664.33" y2="-532.42" gradientTransform="translate(-1.47 198.12) rotate(45)" gradientUnits="userSpaceOnUse"><stop offset="0" stop-color="#ff7a3b" stop-opacity="0.8"/><stop offset="1" stop-color="#f91e47" stop-opacity="0.8"/></linearGradient></defs><g id="instagram_full-2" data-name="instagram_full"><path d="M816.2,253.05h0a189.24,189.24,0,0,0-180.9-49.5h0a185,185,0,0,0-132.7,132.7h0c-16.9,65.1,1.2,133.9,48.3,180.9h0c47,47,115.8,65.1,180.9,48.3h0a184.71,184.71,0,0,0,132.7-132.6h0C881.3,368.85,863.2,301.35,816.2,253.05Z" transform="translate(-489.39 -190.58)" style="stroke:#2e2e4e;stroke-miterlimit:10;stroke-width:14px;fill:url(#linear-gradient)"/><path d="M725.39,297.91c-11.19-.52-14.55-.61-42.87-.61s-31.67.11-42.85.61c-28.78,1.31-42.18,14.94-43.49,43.49-.5,11.18-.63,14.53-.63,42.85s.13,31.67.63,42.87c1.31,28.47,14.65,42.17,43.49,43.49,11.16.5,14.53.62,42.85.62s31.68-.11,42.87-.62c28.77-1.3,42.15-15,43.49-43.49.5-11.18.6-14.55.6-42.87s-.1-31.67-.6-42.85C767.54,312.86,754.13,299.22,725.39,297.91ZM682.52,438.73A54.47,54.47,0,1,1,737,384.25,54.48,54.48,0,0,1,682.52,438.73Zm56.63-98.36a12.73,12.73,0,1,1,12.73-12.73A12.73,12.73,0,0,1,739.15,340.37Zm-21.28,43.88a35.35,35.35,0,1,1-35.35-35.35A35.35,35.35,0,0,1,717.87,384.25ZM682.52,202.41c-100.42,0-181.84,81.42-181.84,181.84S582.1,566.09,682.52,566.09s181.84-81.42,181.84-181.84S782.94,202.41,682.52,202.41ZM788,428c-1.75,38.57-23.22,59.93-61.69,61.71-11.32.51-14.94.63-43.75.63s-32.41-.12-43.73-.63c-38.55-1.78-59.93-23.17-61.71-61.71-.51-11.3-.63-14.92-.63-43.73s.12-32.41.63-43.73c1.78-38.55,23.17-59.93,61.71-61.69,11.32-.53,14.92-.65,43.73-.65s32.43.12,43.75.65c38.56,1.77,60,23.21,61.69,61.69.51,11.32.63,14.92.63,43.73S788.47,416.68,788,428Z" transform="translate(-489.39 -190.58)" style="fill:#2e2e4e"/></g></svg>