<svg id="Layer_1" data-name="Layer 1" xmlns="http://www.w3.org/2000/svg" xmlns:xlink="http://www.w3.org/1999/xlink" viewBox="0 0 388.26 388.03"><defs><linearGradient id="linear-gradient" x1="567.42" y1="-170.37" x2="664.33" y2="-532.42" gradientTransform="translate(-1.47 198.12) rotate(45)" gradientUnits="userSpaceOnUse"><stop offset="0" stop-color="#ff7a3b" stop-opacity="0.8"/><stop offset="1" stop-color="#f91e47" stop-opacity="0.8"/></linearGradient></defs><g id="twitter_border"><path d="M816.2,253.05h0a189.24,189.24,0,0,0-180.9-49.5h0a185,185,0,0,0-132.7,132.7h0c-16.9,65.1,1.2,133.9,48.3,180.9h0c47,47,115.8,65.1,180.9,48.3h0a184.71,184.71,0,0,0,132.7-132.6h0C881.3,368.85,863.2,301.35,816.2,253.05Z" transform="translate(-489.39 -190.58)" style="stroke:#2e2e4e;stroke-miterlimit:10;stroke-width:14px;fill:url(#linear-gradient)"/><path d="M683.77,216.3a168,168,0,1,0,168,168A168,168,0,0,0,683.77,216.3Zm84.92,135C771.25,407.89,729.07,471,654.4,471a113.77,113.77,0,0,1-61.63-18.08,80.91,80.91,0,0,0,59.53-16.64,40.32,40.32,0,0,1-37.58-27.93,40.38,40.38,0,0,0,18.17-.69,40.26,40.26,0,0,1-32.25-39.94,40.1,40.1,0,0,0,18.21,5A40.28,40.28,0,0,1,606.4,319a114.14,114.14,0,0,0,82.88,42,40.24,40.24,0,0,1,68.53-36.68,80.09,80.09,0,0,0,25.54-9.76,40.43,40.43,0,0,1-17.68,22.25,80,80,0,0,0,23.08-6.35A80.53,80.53,0,0,1,768.69,351.33Z" transform="translate(-489.39 -190.58)" style="fill:#2e2e4e"/></g></svg>