<svg id="Layer_1" data-name="Layer 1" xmlns="http://www.w3.org/2000/svg" xmlns:xlink="http://www.w3.org/1999/xlink" viewBox="0 0 388.26 388.03"><defs><linearGradient id="linear-gradient" x1="567.42" y1="-170.37" x2="664.33" y2="-532.42" gradientTransform="translate(-1.47 198.12) rotate(45)" gradientUnits="userSpaceOnUse"><stop offset="0" stop-color="#ff7a3b" stop-opacity="0.8"/><stop offset="1" stop-color="#f91e47" stop-opacity="0.8"/></linearGradient></defs><g id="twitter_full"><path d="M816.2,253.05h0a189.24,189.24,0,0,0-180.9-49.5h0a185,185,0,0,0-132.7,132.7h0c-16.9,65.1,1.2,133.9,48.3,180.9h0c47,47,115.8,65.1,180.9,48.3h0a184.71,184.71,0,0,0,132.7-132.6h0C881.3,368.85,863.2,301.35,816.2,253.05Z" transform="translate(-489.39 -190.58)" style="stroke:#2e2e4e;stroke-miterlimit:10;stroke-width:14px;fill:url(#linear-gradient)"/><path d="M683.77,200.1c-101.73,0-184.2,82.48-184.2,184.2S582,568.5,683.77,568.5,868,486,868,384.3,785.49,200.1,683.77,200.1Zm93.11,148c2.81,62-43.44,131.15-125.32,131.15A124.76,124.76,0,0,1,584,459.48a88.65,88.65,0,0,0,65.27-18.25,44.18,44.18,0,0,1-41.2-30.62,44.23,44.23,0,0,0,19.93-.75c-21.2-4.27-35.85-23.36-35.37-43.8a44,44,0,0,0,20,5.51,44.15,44.15,0,0,1-13.65-58.86,125.14,125.14,0,0,0,90.88,46.06A44.11,44.11,0,0,1,765,318.56a88,88,0,0,0,28-10.7,44.26,44.26,0,0,1-19.39,24.39,88,88,0,0,0,25.32-7A88.58,88.58,0,0,1,776.88,348.15Z" transform="translate(-489.39 -190.58)" style="fill:#2e2e4e"/></g></svg>