<svg id="web_full" xmlns="http://www.w3.org/2000/svg" xmlns:xlink="http://www.w3.org/1999/xlink" viewBox="0 0 388.26 388.03"><defs><linearGradient id="linear-gradient" x1="567.42" y1="-170.37" x2="664.33" y2="-532.42" gradientTransform="translate(-1.47 198.12) rotate(45)" gradientUnits="userSpaceOnUse"><stop offset="0" stop-color="#ff7a3b" stop-opacity="0.8"/><stop offset="1" stop-color="#f91e47" stop-opacity="0.8"/></linearGradient></defs><g id="website_full"><path d="M816.2,253.05h0a189.24,189.24,0,0,0-180.9-49.5h0a185,185,0,0,0-132.7,132.7h0c-16.9,65.1,1.2,133.9,48.3,180.9h0c47,47,115.8,65.1,180.9,48.3h0a184.71,184.71,0,0,0,132.7-132.6h0C881.3,368.85,863.2,301.35,816.2,253.05Z" transform="translate(-489.39 -190.58)" style="stroke:#2e2e4e;stroke-miterlimit:10;stroke-width:14px;fill:url(#linear-gradient)"/><path d="M733.17,462.88c-14.18,56.61-39,91.78-49.65,107.07-10.69-15.29-35.48-50.44-49.65-107.07Zm117.23,0a184,184,0,0,1-128.27,103,325.9,325.9,0,0,0,42.48-103Zm-333.76,0h85.8a325.59,325.59,0,0,0,42.48,103A184,184,0,0,1,516.64,462.88ZM739.2,432.29H627.84a318.58,318.58,0,0,1,0-91.78H739.21A319.65,319.65,0,0,1,739.2,432.29Zm-142.24,0H505.77a184.44,184.44,0,0,1,0-91.78H597A350.74,350.74,0,0,0,597,432.29Zm264.32,0H770.07a348.59,348.59,0,0,0,0-91.78h91.2a184.75,184.75,0,0,1,0,91.78ZM733.17,309.92h-99.3c14.15-56.63,38.94-91.78,49.65-107.07C701.79,229,720.91,261,733.17,309.92Zm-130.75,0H516.63a184.06,184.06,0,0,1,128.29-103A326.26,326.26,0,0,0,602.42,309.91Zm248,0H764.61a325.38,325.38,0,0,0-42.5-103A184,184,0,0,1,850.4,309.91Z" transform="translate(-489.39 -190.58)" style="fill:#2e2e4e;fill-rule:evenodd"/></g></svg>