<svg id="web_border" xmlns="http://www.w3.org/2000/svg" xmlns:xlink="http://www.w3.org/1999/xlink" viewBox="0 0 388.26 388.03"><defs><linearGradient id="linear-gradient" x1="567.42" y1="-170.37" x2="664.33" y2="-532.42" gradientTransform="translate(-1.47 198.12) rotate(45)" gradientUnits="userSpaceOnUse"><stop offset="0" stop-color="#ff7a3b" stop-opacity="0.8"/><stop offset="1" stop-color="#f91e47" stop-opacity="0.8"/></linearGradient></defs><g id="website_border"><path d="M816.2,253.05h0a189.24,189.24,0,0,0-180.9-49.5h0a185,185,0,0,0-132.7,132.7h0c-16.9,65.1,1.2,133.9,48.3,180.9h0c47,47,115.8,65.1,180.9,48.3h0a184.71,184.71,0,0,0,132.7-132.6h0C881.3,368.85,863.2,301.35,816.2,253.05Z" transform="translate(-489.39 -190.58)" style="stroke:#2e2e4e;stroke-miterlimit:10;stroke-width:14px;fill:url(#linear-gradient)"/><path d="M729,456.4c-13,51.81-35.66,84-45.45,98-9.78-14-32.48-46.17-45.44-98Zm107.29,0a168.38,168.38,0,0,1-117.4,94.26,298.1,298.1,0,0,0,38.88-94.26Zm-305.48,0h78.53a298.08,298.08,0,0,0,38.88,94.26A168.38,168.38,0,0,1,530.78,456.4Zm203.7-28H632.56a291.18,291.18,0,0,1,0-84H734.5A292.6,292.6,0,0,1,734.48,428.4Zm-130.18,0H520.83a168.76,168.76,0,0,1,0-84H604.3A320.08,320.08,0,0,0,604.3,428.4Zm241.92,0H762.73a319.23,319.23,0,0,0,0-84h83.47a169.07,169.07,0,0,1,0,84ZM729,316.4H638.08c12.95-51.83,35.64-84,45.44-98C700.24,242.31,717.74,271.59,729,316.4Zm-119.68,0H530.77a168.5,168.5,0,0,1,117.42-94.27A298.81,298.81,0,0,0,609.29,316.39Zm227,0H757.74a298,298,0,0,0-38.9-94.27A168.48,168.48,0,0,1,836.26,316.39Z" transform="translate(-489.39 -190.58)" style="fill:#2e2e4e;fill-rule:evenodd"/></g></svg>